<?xml version="1.0" encoding="utf-8"?>
<!DOCTYPE svg PUBLIC "-//W3C//DTD SVG 20010904//EN" "http://www.w3.org/TR/2001/REC-SVG-20010904/DTD/svg10.dtd">
<svg version="1.0" xmlns="http://www.w3.org/2000/svg" width="1082pt" height="1082pt" viewBox="0 0 1082 1082" style="" preserveAspectRatio="xMidYMid meet">
<g fill="#000000FF">
<path d="M 217.500 256.380 C 181.200 271.416 149.925 284.454 148.000 285.353 C 146.075 286.253 116.600 298.481 82.500 312.526 C 44.005 328.382 19.827 338.863 18.724 340.174 C 17.054 342.160 16.965 346.466 17.224 412.490 C 17.451 470.220 17.744 482.987 18.872 484.347 C 20.101 485.827 23.931 486.000 55.500 486.000 C 83.270 486.000 90.985 485.723 91.838 484.696 C 92.569 483.815 93.014 468.959 93.210 438.946 C 93.535 389.112 93.170 391.520 101.000 387.545 C 110.156 382.897 174.001 357.000 176.304 357.000 C 179.126 357.000 182.000 359.848 182.000 362.643 C 182.000 363.735 180.426 370.225 178.503 377.064 C 156.399 455.674 160.007 539.949 188.688 615.000 C 207.849 665.138 236.509 709.336 274.411 747.200 C 315.991 788.738 362.532 817.819 418.522 837.247 C 462.187 852.399 515.796 859.977 559.245 857.140 C 610.316 853.805 647.070 845.163 692.500 825.806 C 740.699 805.271 789.585 769.312 825.467 728.000 C 860.411 687.769 888.583 635.793 902.980 584.989 C 922.207 517.141 922.196 442.587 902.949 376.351 C 898.314 360.400 899.155 356.190 906.760 357.271 C 910.688 357.829 979.543 385.999 983.805 388.792 C 988.837 392.089 989.000 393.679 989.000 439.534 C 989.000 466.985 989.368 482.819 990.035 484.066 C 991.029 485.923 992.501 486.000 1027.000 486.000 C 1061.499 486.000 1062.971 485.923 1063.965 484.066 C 1064.650 482.785 1065.000 458.344 1065.000 411.721 C 1065.000 344.574 1064.915 341.233 1063.157 339.642 C 1062.143 338.724 1031.430 325.574 994.907 310.419 C 958.383 295.263 899.779 270.951 864.675 256.392 C 829.571 241.832 799.570 229.664 798.007 229.351 C 795.592 228.868 794.931 229.233 793.617 231.774 C 789.596 239.550 766.858 295.818 766.784 298.175 C 766.729 299.906 768.476 303.259 771.733 307.675 C 797.727 342.922 815.670 383.732 823.399 425.184 C 827.603 447.735 828.398 456.597 828.450 481.500 C 828.503 506.731 827.739 515.140 823.371 537.467 C 814.313 583.754 792.279 629.302 760.705 667.000 C 715.735 720.695 652.135 756.092 581.804 766.569 C 567.848 768.648 529.617 769.536 514.437 768.134 C 427.173 760.074 349.087 713.112 300.431 639.428 C 278.226 605.801 261.868 563.267 256.616 525.500 C 253.426 502.561 252.998 496.980 253.005 478.500 C 253.029 416.450 273.419 355.950 311.066 306.219 C 313.780 302.635 316.000 299.110 316.000 298.388 C 316.000 296.678 289.242 231.997 287.832 230.297 C 287.240 229.584 286.023 229.010 285.128 229.021 C 284.232 229.033 253.800 241.344 217.500 256.380 "/></g>
</svg>
